<mxfile host="65bd71144e">
    <diagram id="XrLQXBW12-ojgaxLYbWh" name="Page-1">
        <mxGraphModel dx="1570" dy="809" grid="1" gridSize="10" guides="1" tooltips="1" connect="1" arrows="1" fold="1" page="1" pageScale="1" pageWidth="850" pageHeight="1100" math="0" shadow="0">
            <root>
                <mxCell id="0"/>
                <mxCell id="1" parent="0"/>
                <mxCell id="2" value="User" style="swimlane;fontStyle=1;align=center;verticalAlign=middle;childLayout=stackLayout;horizontal=1;startSize=29;horizontalStack=0;resizeParent=1;resizeParentMax=0;resizeLast=0;collapsible=0;marginBottom=0;html=1;" parent="1" vertex="1">
                    <mxGeometry x="50" y="70" width="140" height="79" as="geometry"/>
                </mxCell>
                <mxCell id="3" value="&amp;lt;&amp;lt;stereotype1&amp;gt;&amp;gt;" style="text;html=1;strokeColor=none;fillColor=none;align=center;verticalAlign=middle;spacingLeft=4;spacingRight=4;overflow=hidden;rotatable=0;points=[[0,0.5],[1,0.5]];portConstraint=eastwest;" parent="2" vertex="1">
                    <mxGeometry y="29" width="140" height="25" as="geometry"/>
                </mxCell>
                <mxCell id="4" value="stereotype property 1" style="text;html=1;strokeColor=none;fillColor=none;align=left;verticalAlign=middle;spacingLeft=4;spacingRight=4;overflow=hidden;rotatable=0;points=[[0,0.5],[1,0.5]];portConstraint=eastwest;" parent="2" vertex="1">
                    <mxGeometry y="54" width="140" height="25" as="geometry"/>
                </mxCell>
                <mxCell id="10" value="TransactionType" style="swimlane;fontStyle=1;align=center;verticalAlign=middle;childLayout=stackLayout;horizontal=1;startSize=29;horizontalStack=0;resizeParent=1;resizeParentMax=0;resizeLast=0;collapsible=0;marginBottom=0;html=1;" parent="1" vertex="1">
                    <mxGeometry x="630" y="100" width="140" height="79" as="geometry"/>
                </mxCell>
                <mxCell id="11" value="&amp;lt;&amp;lt;stereotype1&amp;gt;&amp;gt;" style="text;html=1;strokeColor=none;fillColor=none;align=center;verticalAlign=middle;spacingLeft=4;spacingRight=4;overflow=hidden;rotatable=0;points=[[0,0.5],[1,0.5]];portConstraint=eastwest;" parent="10" vertex="1">
                    <mxGeometry y="29" width="140" height="25" as="geometry"/>
                </mxCell>
                <mxCell id="12" value="stereotype property 1" style="text;html=1;strokeColor=none;fillColor=none;align=left;verticalAlign=middle;spacingLeft=4;spacingRight=4;overflow=hidden;rotatable=0;points=[[0,0.5],[1,0.5]];portConstraint=eastwest;" parent="10" vertex="1">
                    <mxGeometry y="54" width="140" height="25" as="geometry"/>
                </mxCell>
                <mxCell id="13" value="Account" style="swimlane;fontStyle=1;align=center;verticalAlign=middle;childLayout=stackLayout;horizontal=1;startSize=29;horizontalStack=0;resizeParent=1;resizeParentMax=0;resizeLast=0;collapsible=0;marginBottom=0;html=1;" parent="1" vertex="1">
                    <mxGeometry x="50" y="310" width="140" height="79" as="geometry"/>
                </mxCell>
                <mxCell id="14" value="&amp;lt;&amp;lt;stereotype1&amp;gt;&amp;gt;" style="text;html=1;strokeColor=none;fillColor=none;align=center;verticalAlign=middle;spacingLeft=4;spacingRight=4;overflow=hidden;rotatable=0;points=[[0,0.5],[1,0.5]];portConstraint=eastwest;" parent="13" vertex="1">
                    <mxGeometry y="29" width="140" height="25" as="geometry"/>
                </mxCell>
                <mxCell id="15" value="stereotype property 1" style="text;html=1;strokeColor=none;fillColor=none;align=left;verticalAlign=middle;spacingLeft=4;spacingRight=4;overflow=hidden;rotatable=0;points=[[0,0.5],[1,0.5]];portConstraint=eastwest;" parent="13" vertex="1">
                    <mxGeometry y="54" width="140" height="25" as="geometry"/>
                </mxCell>
                <mxCell id="43" value="" style="endArrow=classic;html=1;entryX=0;entryY=0.5;entryDx=0;entryDy=0;" parent="13" target="22" edge="1">
                    <mxGeometry relative="1" as="geometry">
                        <mxPoint x="130" y="70" as="sourcePoint"/>
                        <mxPoint x="230" y="70" as="targetPoint"/>
                    </mxGeometry>
                </mxCell>
                <mxCell id="44" value="Label" style="edgeLabel;resizable=0;html=1;align=center;verticalAlign=middle;" parent="43" connectable="0" vertex="1">
                    <mxGeometry relative="1" as="geometry"/>
                </mxCell>
                <mxCell id="17" value="Budget" style="swimlane;fontStyle=1;align=center;verticalAlign=middle;childLayout=stackLayout;horizontal=1;startSize=29;horizontalStack=0;resizeParent=1;resizeParentMax=0;resizeLast=0;collapsible=0;marginBottom=0;html=1;" parent="1" vertex="1">
                    <mxGeometry x="280" y="460" width="140" height="79" as="geometry"/>
                </mxCell>
                <mxCell id="18" value="&amp;lt;&amp;lt;stereotype1&amp;gt;&amp;gt;" style="text;html=1;strokeColor=none;fillColor=none;align=center;verticalAlign=middle;spacingLeft=4;spacingRight=4;overflow=hidden;rotatable=0;points=[[0,0.5],[1,0.5]];portConstraint=eastwest;" parent="17" vertex="1">
                    <mxGeometry y="29" width="140" height="25" as="geometry"/>
                </mxCell>
                <mxCell id="19" value="stereotype property 1" style="text;html=1;strokeColor=none;fillColor=none;align=left;verticalAlign=middle;spacingLeft=4;spacingRight=4;overflow=hidden;rotatable=0;points=[[0,0.5],[1,0.5]];portConstraint=eastwest;" parent="17" vertex="1">
                    <mxGeometry y="54" width="140" height="25" as="geometry"/>
                </mxCell>
                <mxCell id="21" value="Transaction" style="swimlane;fontStyle=1;align=center;verticalAlign=middle;childLayout=stackLayout;horizontal=1;startSize=29;horizontalStack=0;resizeParent=1;resizeParentMax=0;resizeLast=0;collapsible=0;marginBottom=0;html=1;" parent="1" vertex="1">
                    <mxGeometry x="640" y="310" width="140" height="79" as="geometry"/>
                </mxCell>
                <mxCell id="22" value="&amp;lt;&amp;lt;stereotype1&amp;gt;&amp;gt;" style="text;html=1;strokeColor=none;fillColor=none;align=center;verticalAlign=middle;spacingLeft=4;spacingRight=4;overflow=hidden;rotatable=0;points=[[0,0.5],[1,0.5]];portConstraint=eastwest;" parent="21" vertex="1">
                    <mxGeometry y="29" width="140" height="25" as="geometry"/>
                </mxCell>
                <mxCell id="23" value="stereotype property 1" style="text;html=1;strokeColor=none;fillColor=none;align=left;verticalAlign=middle;spacingLeft=4;spacingRight=4;overflow=hidden;rotatable=0;points=[[0,0.5],[1,0.5]];portConstraint=eastwest;" parent="21" vertex="1">
                    <mxGeometry y="54" width="140" height="25" as="geometry"/>
                </mxCell>
                <mxCell id="29" value="" style="endArrow=classic;html=1;entryX=-0.029;entryY=0.152;entryDx=0;entryDy=0;entryPerimeter=0;exitX=0.714;exitY=1.08;exitDx=0;exitDy=0;exitPerimeter=0;" parent="1" source="4" target="17" edge="1">
                    <mxGeometry relative="1" as="geometry">
                        <mxPoint x="210" y="150" as="sourcePoint"/>
                        <mxPoint x="310" y="150" as="targetPoint"/>
                    </mxGeometry>
                </mxCell>
                <mxCell id="30" value="Label" style="edgeLabel;resizable=0;html=1;align=center;verticalAlign=middle;" parent="29" connectable="0" vertex="1">
                    <mxGeometry relative="1" as="geometry"/>
                </mxCell>
                <mxCell id="31" value="" style="endArrow=classic;html=1;" parent="1" source="4" target="13" edge="1">
                    <mxGeometry relative="1" as="geometry">
                        <mxPoint x="80" y="190" as="sourcePoint"/>
                        <mxPoint x="180" y="190" as="targetPoint"/>
                    </mxGeometry>
                </mxCell>
                <mxCell id="32" value="Label" style="edgeLabel;resizable=0;html=1;align=center;verticalAlign=middle;" parent="31" connectable="0" vertex="1">
                    <mxGeometry relative="1" as="geometry"/>
                </mxCell>
                <mxCell id="33" value="" style="endArrow=classic;html=1;entryX=0;entryY=0.25;entryDx=0;entryDy=0;exitX=0.964;exitY=1.08;exitDx=0;exitDy=0;exitPerimeter=0;" parent="1" source="4" target="21" edge="1">
                    <mxGeometry relative="1" as="geometry">
                        <mxPoint x="220" y="150" as="sourcePoint"/>
                        <mxPoint x="320" y="150" as="targetPoint"/>
                    </mxGeometry>
                </mxCell>
                <mxCell id="34" value="Label" style="edgeLabel;resizable=0;html=1;align=center;verticalAlign=middle;" parent="33" connectable="0" vertex="1">
                    <mxGeometry relative="1" as="geometry"/>
                </mxCell>
                <mxCell id="45" value="" style="endArrow=classic;html=1;entryX=0.5;entryY=0;entryDx=0;entryDy=0;" parent="1" target="21" edge="1">
                    <mxGeometry relative="1" as="geometry">
                        <mxPoint x="700" y="180" as="sourcePoint"/>
                        <mxPoint x="800" y="180" as="targetPoint"/>
                    </mxGeometry>
                </mxCell>
                <mxCell id="46" value="Label" style="edgeLabel;resizable=0;html=1;align=center;verticalAlign=middle;" parent="45" connectable="0" vertex="1">
                    <mxGeometry relative="1" as="geometry"/>
                </mxCell>
            </root>
        </mxGraphModel>
    </diagram>
</mxfile>
